<svg width="20" height="20" viewBox="0 0 20 20" fill="none" xmlns="http://www.w3.org/2000/svg">
<path d="M14.19 0H5.81C2.17 0 0 2.17 0 5.81V14.18C0 17.83 2.17 20 5.81 20H14.18C17.82 20 19.99 17.83 19.99 14.19V5.81C20 2.17 17.83 0 14.19 0Z" fill="#FFCA1D"/>
<g clip-path="url(#clip0_581_2087)">
<path fill-rule="evenodd" clip-rule="evenodd" d="M8.375 4.875C8.375 4.44402 8.5462 4.0307 8.85095 3.72595C9.1557 3.4212 9.56902 3.25 10 3.25C10.431 3.25 10.8443 3.4212 11.149 3.72595C11.4538 4.0307 11.625 4.44402 11.625 4.875V11.0719C12.1218 11.4179 12.4953 11.9134 12.691 12.4863C12.8868 13.0592 12.8945 13.6796 12.7133 14.2572C12.532 14.8349 12.171 15.3396 11.683 15.6979C11.195 16.0562 10.6054 16.2494 10 16.2494C9.39458 16.2494 8.80496 16.0562 8.31696 15.6979C7.82896 15.3396 7.46805 14.8349 7.28675 14.2572C7.10545 13.6796 7.11324 13.0592 7.30897 12.4863C7.5047 11.9134 7.87816 11.4179 8.375 11.0719V4.875ZM10 4.0625C9.78451 4.0625 9.57785 4.1481 9.42548 4.30048C9.2731 4.45285 9.1875 4.65951 9.1875 4.875V11.2946C9.1875 11.3659 9.16873 11.4359 9.13307 11.4977C9.09741 11.5594 9.04613 11.6107 8.98438 11.6464C8.59612 11.8694 8.29246 12.2144 8.12065 12.6279C7.94883 13.0413 7.91849 13.5 8.03435 13.9325C8.15021 14.365 8.40577 14.747 8.76127 15.0192C9.11677 15.2914 9.55227 15.4385 10 15.4375C10.4474 15.4378 10.8824 15.2904 11.2374 15.0181C11.5924 14.7459 11.8476 14.364 11.9634 13.9319C12.0792 13.4997 12.049 13.0414 11.8776 12.6282C11.7063 12.2149 11.4032 11.8698 11.0156 11.6464C10.9539 11.6107 10.9026 11.5594 10.8669 11.4977C10.8313 11.4359 10.8125 11.3659 10.8125 11.2946V4.875C10.8125 4.65951 10.7269 4.45285 10.5745 4.30048C10.4222 4.1481 10.2155 4.0625 10 4.0625Z" fill="white"/>
<path d="M11.2188 13.4062C11.2188 13.7295 11.0903 14.0395 10.8618 14.268C10.6332 14.4966 10.3232 14.625 10 14.625C9.67677 14.625 9.36677 14.4966 9.13821 14.268C8.90965 14.0395 8.78125 13.7295 8.78125 13.4062C8.78125 13.083 8.90965 12.773 9.13821 12.5445C9.36677 12.3159 9.67677 12.1875 10 12.1875C10.3232 12.1875 10.6332 12.3159 10.8618 12.5445C11.0903 12.773 11.2188 13.083 11.2188 13.4062Z" fill="white"/>
</g>
<defs>
<clipPath id="clip0_581_2087">
<rect width="13" height="13" fill="white" transform="translate(3.5 3.25)"/>
</clipPath>
</defs>
</svg>
