<svg width="20" height="20" viewBox="0 0 20 20" fill="none" xmlns="http://www.w3.org/2000/svg">
<path d="M14.19 0H5.81C2.17 0 0 2.17 0 5.81V14.18C0 17.83 2.17 20 5.81 20H14.18C17.82 20 19.99 17.83 19.99 14.19V5.81C20 2.17 17.83 0 14.19 0Z" fill="#FFCA1D"/>
<g clip-path="url(#clip0_581_2866)">
<path fill-rule="evenodd" clip-rule="evenodd" d="M4 4.75L4.75 4L7.06075 5.65C7.15806 5.71946 7.23735 5.81118 7.29201 5.91751C7.34668 6.02384 7.37513 6.14169 7.375 6.26125V6.31375C7.37492 6.41236 7.39429 6.51002 7.432 6.60113C7.46971 6.69225 7.52501 6.77503 7.59475 6.84475L11.875 11.125L12.5605 10.8962C12.6926 10.8523 12.8344 10.846 12.9699 10.878C13.1054 10.9101 13.2293 10.9793 13.3278 11.0778L15.8448 13.5948C15.9854 13.7354 16.0643 13.9261 16.0643 14.125C16.0643 14.3239 15.9854 14.5146 15.8448 14.6552L14.6552 15.8448C14.5146 15.9854 14.3239 16.0643 14.125 16.0643C13.9261 16.0643 13.7354 15.9854 13.5948 15.8448L11.0778 13.3278C10.9793 13.2293 10.9101 13.1054 10.878 12.9699C10.846 12.8344 10.8523 12.6926 10.8962 12.5605L11.125 11.875L6.84475 7.59475C6.70413 7.45409 6.5134 7.37504 6.3145 7.375H6.26125C6.14182 7.37501 6.02411 7.3465 5.91793 7.29184C5.81174 7.23718 5.72014 7.15795 5.65075 7.06075L4 4.75ZM12.5155 11.9845C12.4451 11.9141 12.3496 11.8745 12.25 11.8745C12.1504 11.8745 12.0549 11.9141 11.9845 11.9845C11.9141 12.0549 11.8745 12.1504 11.8745 12.25C11.8745 12.3496 11.9141 12.4451 11.9845 12.5155L14.2345 14.7655C14.3049 14.8359 14.4004 14.8755 14.5 14.8755C14.5996 14.8755 14.6951 14.8359 14.7655 14.7655C14.8359 14.6951 14.8755 14.5996 14.8755 14.5C14.8755 14.4004 14.8359 14.3049 14.7655 14.2345L12.5155 11.9845Z" fill="white"/>
<path fill-rule="evenodd" clip-rule="evenodd" d="M15.9228 5.66734C16.0245 6.04911 16.0241 6.45094 15.9214 6.83247C15.8188 7.214 15.6176 7.56182 15.338 7.84101C15.0584 8.12019 14.7103 8.32093 14.3287 8.42305C13.947 8.52518 13.5452 8.52511 13.1635 8.42284L8.40779 13.1126C8.54953 13.5923 8.52736 14.1056 8.34481 14.5713C8.16225 15.037 7.82972 15.4286 7.39974 15.6842C6.96977 15.9398 6.46688 16.0448 5.97054 15.9827C5.4742 15.9206 5.01272 15.6948 4.65901 15.3411C4.30531 14.9874 4.07956 14.5259 4.01743 14.0296C3.9553 13.5333 4.06033 13.0304 4.31594 12.6004C4.57155 12.1704 4.96314 11.8379 5.42885 11.6553C5.89456 11.4728 6.40783 11.4506 6.88754 11.5923L11.5765 6.83659C11.473 6.45465 11.472 6.05216 11.5737 5.66972C11.6753 5.28728 11.8761 4.93841 12.1556 4.65833C12.4352 4.37824 12.7837 4.17684 13.1659 4.07444C13.5482 3.97204 13.9507 3.97226 14.3328 4.07509L12.7263 5.68159L12.9993 7.00009L14.317 7.27309L15.9228 5.66734ZM5.89529 12.4316L6.25004 12.2501L6.60329 12.4316L7.00004 12.4511L7.21529 12.7848L7.54904 13.0001L7.56854 13.3968L7.74929 13.7501L7.56779 14.1033L7.54829 14.5001L7.21454 14.7153L6.99929 15.0491L6.60254 15.0686L6.24929 15.2501L5.89604 15.0686L5.49929 15.0491L5.28404 14.7153L4.95029 14.5001L4.93079 14.1033L4.74929 13.7501L4.93079 13.3968L4.95029 13.0001L5.28404 12.7848L5.49929 12.4511L5.89604 12.4316H5.89529Z" fill="white"/>
</g>
<defs>
<clipPath id="clip0_581_2866">
<rect width="12" height="12" fill="white" transform="translate(4 4)"/>
</clipPath>
</defs>
</svg>
