<svg width="1109" height="1131" viewBox="0 0 1109 1131" fill="none" xmlns="http://www.w3.org/2000/svg">
<path d="M56.4809 708.651C-75.2958 636.461 -238.905 663.866 -304.237 686.593C-306.322 793.54 -309.241 1009.04 -304.237 1015.46C-299.233 1021.87 630.006 1166.17 1022 1163.5C938.597 1099.33 715.364 792.872 471.411 820.946C285.072 842.389 221.202 798.888 56.4809 708.651Z" fill="white" fill-opacity="0.07"/>
<path d="M182.946 852.576C48.1691 805.08 -113.937 835.571 -178.143 856.754C-175.448 938.627 -168.738 1103.53 -163.456 1108.14C-158.174 1112.75 650.293 1205.41 1041.5 1180.5C955.373 1136.31 844.468 878.525 602.184 914.214C417.12 941.474 351.416 911.947 182.946 852.576Z" fill="white" fill-opacity="0.07"/>
<path d="M171.717 217.628C-77.3772 206.022 -128.029 351.672 -208.662 318.033C-212.295 157.237 -257.478 -159.064 -251.383 -168.754C-245.288 -178.444 622.57 -159.944 1105.04 -159.124L1106.08 -2.3315C1004.07 94.837 1085.45 120.301 715.035 115.465C453.355 112.048 450.541 230.62 171.717 217.628Z" fill="white" fill-opacity="0.07"/>
<path d="M0.717477 154.628C-248.377 143.022 -299.029 288.672 -379.662 255.033C-383.295 94.2372 -428.478 -222.064 -422.383 -231.754C-416.288 -241.444 451.57 -222.944 934.038 -222.124L935.078 -65.3315C833.071 31.837 914.445 57.3011 544.035 52.4648C282.355 49.0482 279.541 167.62 0.717477 154.628Z" fill="white" fill-opacity="0.07"/>
</svg>
